<svg xmlns="http://www.w3.org/2000/svg" viewBox="0 0 208.15 91.26"><defs><style>.cls-1{fill:#fff;}.cls-2{fill:#88b6bf;fill-rule:evenodd;}</style></defs><g id="Layer_2" data-name="Layer 2"><g id="Layer_1-2" data-name="Layer 1"><path class="cls-1" d="M43.6,63.87,32.75,38H24.23L39.58,73.34,32.17,91.26h8.14L62.23,38h-8.4Z"/><path class="cls-1" d="M14.35,24.8l-8,4.41V38H0v7.14H6.31V60.06C6.31,71.7,9.73,75.2,21,75.2h1.21V67.63c-6.84,0-7.87-1.06-7.87-7.77V45.14h7.87V38H14.35Z"/><path class="cls-1" d="M165,56.4a18.61,18.61,0,0,0-19.15-19.16,19.12,19.12,0,0,0-19.22,19.54,19.39,19.39,0,0,0,37.7,6h-8.55a9.89,9.89,0,0,1-10.05,6.34,11.22,11.22,0,0,1-11.66-9.92h30.81Zm-30.15-3.94a11.54,11.54,0,0,1,11.08-8.1,10.51,10.51,0,0,1,11,8.13Z"/><path class="cls-1" d="M108.12,37.24A14.31,14.31,0,0,0,101,38.93a14.46,14.46,0,0,0-5.4,5,14.29,14.29,0,0,0-23.07-1.48V38H64.54V75.28h7.94V54.46c0-6.87,3.85-10.38,9-10.38s8.39,3.43,8.39,8.89V75.18h8V54.25c0-6.64,3.87-10.09,8.85-10.09,5.55,0,8.62,3.66,8.62,9.24V75.25h8.09V52.92C123.5,43.35,118.22,37.24,108.12,37.24Z"/><polygon class="cls-2" points="208.13 5.72 202.41 0 182.15 20.27 170.69 8.82 164.97 14.54 176.42 25.99 164.97 37.44 170.7 43.16 187.87 25.99 208.13 5.72"/><polygon class="cls-2" points="187.87 25.99 187.87 37.44 202.43 51.99 208.15 46.27 187.87 25.99"/></g></g></svg>