<svg xmlns="http://www.w3.org/2000/svg" viewBox="0 0 148.59 178.72"><defs><style>.cls-1{fill:#88b6bf;fill-rule:evenodd;}.cls-2{fill:#14161a;}</style></defs><g id="Layer_2" data-name="Layer 2"><g id="Layer_1-2" data-name="Layer 1"><polygon class="cls-1" points="148.54 19.68 128.84 0 59.1 69.66 19.7 30.31 0 49.98 39.41 89.34 0.01 128.7 19.71 148.37 78.8 89.34 148.54 19.68"/><polygon class="cls-1" points="78.8 89.34 78.8 128.69 128.89 178.72 148.59 159.04 78.8 89.34"/><path class="cls-2" d="M41.81,95.12,33.14,74.46h-6.8L38.6,102.68,32.68,117h6.5L56.69,74.46H50Z"/><path class="cls-2" d="M18.45,63.92,12,67.45v7H7v5.71h5V92.08c0,9.29,2.73,12.09,11.74,12.09h1v-6c-5.46,0-6.29-.85-6.29-6.21V80.17h6.29V74.46H18.45Z"/><path class="cls-2" d="M138.75,89.16a15,15,0,0,0-4.37-11,14.84,14.84,0,0,0-10.92-4.34,15.23,15.23,0,0,0-14.28,9.62,15.48,15.48,0,1,0,29,10.76h-6.83a7.87,7.87,0,0,1-8,5.05,8.88,8.88,0,0,1-6.21-2.11A9,9,0,0,1,114,91.37h24.61ZM114.67,86a9.23,9.23,0,0,1,8.85-6.47A8.43,8.43,0,0,1,132.29,86Z"/><path class="cls-2" d="M93.33,73.86a11.43,11.43,0,0,0-10,5.36A11.42,11.42,0,0,0,64.87,78V74.46H58.53v29.77h6.34V87.6c0-5.48,3.07-8.28,7.23-8.28s6.7,2.74,6.7,7.09v17.74h6.4V87.44c0-5.3,3.09-8.06,7.07-8.06,4.43,0,6.88,2.92,6.88,7.38v17.45h6.46V86.37C105.61,78.74,101.4,73.86,93.33,73.86Z"/></g></g></svg>