<svg width="1061" height="1080" viewBox="0 0 1061 1080" fill="none" xmlns="http://www.w3.org/2000/svg">
<path d="M1013.08 672.483C1013.08 672.483 836.801 587.945 727.465 587.945C596.196 587.945 468.64 625.628 420.24 638.065C293.133 670.739 46.8701 672.483 46.8701 672.483H1013.08Z" fill="#C6C0B4"/>
<path d="M46.8701 672.483C46.8701 672.483 146.96 623.31 260.036 623.31C338.967 623.31 452.266 633.504 558.961 650.177C599.585 656.532 811.056 672.483 811.056 672.483H46.8701Z" fill="#4E4E53"/>
<path d="M974.65 499.493C962.762 499.493 665.78 497.425 581.915 497.425C576.033 497.425 583.46 487.256 586.7 486.558C596.993 484.29 607.76 484.066 618.228 483.094C628.565 482.125 638.698 479.605 648.285 475.617C656.534 472.128 664.784 468.14 673.706 466.695C691.002 464.003 706.106 473.349 722.355 477.486C727.274 478.898 732.433 479.266 737.502 478.566C742.571 477.867 747.437 476.115 751.789 473.424C759.266 468.913 766.095 463.455 773.946 459.567C788.941 452.176 805.3 447.96 822 447.184C838.699 446.408 855.379 449.088 870.996 455.056C878.433 457.929 885.549 461.571 892.23 465.922C900.155 471.131 906.984 477.761 914.91 482.895C932.505 494.285 954.263 490.571 973.429 497.101C974.5 497.425 975.672 499.493 974.65 499.493Z" fill="#C6C0B4"/>
<path d="M905.39 124.802C889.663 124.802 624.907 126.547 608.259 126.024C607.062 126.024 606.414 124.229 607.611 123.531C618.103 118.347 630.041 119.394 640.908 115.73C647.313 113.562 651.251 109.375 655.712 104.565C659.426 100.395 664.209 97.3181 669.544 95.6676C674.401 94.2015 679.558 94.0382 684.498 95.194C689.881 96.4651 694.467 99.5555 699.651 101.475C712.387 106.285 724.748 101.724 733.82 92.303C741.297 84.5519 748.774 77.2246 758.868 73.0625C763.025 71.1796 767.525 70.1746 772.088 70.1102C776.651 70.0459 781.178 70.9237 785.386 72.6887C795.056 77.1 801.636 85.9476 810.857 91.1814C821.574 97.5866 834.609 96.166 846.497 97.9854C858.385 99.8048 867.606 109.948 878.074 115.755C881.492 117.939 885.435 119.161 889.489 119.294C891.831 119.294 894.124 118.597 896.442 118.298C900.056 117.849 903.47 117.974 905.913 120.964C906.536 121.712 906.312 124.802 905.39 124.802Z" fill="#C6C0B4"/>
<path d="M1059.39 221.454C1047.9 221.454 854.596 222.725 842.558 222.351C841.686 222.351 841.212 221.03 842.085 220.606C849.736 216.818 858.434 217.566 866.384 214.899C870.637 213.181 874.36 210.369 877.176 206.749C879.843 203.695 883.289 201.421 887.145 200.17C890.701 199.108 894.471 198.988 898.086 199.821C901.876 201.123 905.581 202.663 909.177 204.431C918.448 207.921 927.47 204.606 934.1 197.727C939.583 192.07 944.941 186.711 952.393 183.671C955.429 182.295 958.715 181.561 962.047 181.514C965.379 181.467 968.685 182.108 971.758 183.396C978.837 186.611 983.697 193.067 990.351 196.955C998.251 201.565 1007.8 200.494 1016.42 201.939C1025.04 203.385 1031.82 210.687 1039.47 214.924C1041.98 216.495 1044.87 217.356 1047.82 217.416C1049.5 217.272 1051.16 217.031 1052.81 216.693C1054.03 216.357 1055.32 216.363 1056.54 216.71C1057.75 217.057 1058.85 217.733 1059.71 218.662C1060.23 219.186 1060.14 221.454 1059.39 221.454Z" fill="#C6C0B4"/>
<path d="M442.87 300.982C431.38 300.982 238.103 302.254 226.041 301.855C225.168 301.855 224.695 300.559 225.567 300.135C233.218 296.322 241.916 297.095 249.867 294.403C254.136 292.702 257.872 289.888 260.683 286.253C263.354 283.208 266.799 280.943 270.653 279.698C274.206 278.624 277.979 278.504 281.594 279.349C285.371 280.654 289.066 282.186 292.659 283.935C301.956 287.449 310.978 284.11 317.582 277.256C323.04 271.574 328.424 266.24 335.851 263.199C338.886 261.824 342.173 261.09 345.505 261.043C348.837 260.996 352.143 261.637 355.216 262.925C362.319 266.14 367.179 272.595 373.833 276.483C381.734 281.094 391.279 279.997 399.878 281.468C408.476 282.938 415.305 290.216 422.956 294.428C425.456 295.994 428.332 296.855 431.281 296.92C432.953 296.763 434.617 296.522 436.265 296.197C437.484 295.863 438.771 295.868 439.987 296.211C441.203 296.553 442.303 297.221 443.169 298.141C443.717 298.715 443.642 300.982 442.87 300.982Z" fill="#C6C0B4"/>
<path d="M217.766 182.674C206.277 182.674 12.9748 183.945 0.937052 183.546C0.0647503 183.546 -0.408781 182.25 0.46352 181.826C8.11485 178.038 16.8129 178.786 24.7633 176.094C29.0255 174.393 32.7525 171.578 35.555 167.944C38.2318 164.907 41.6746 162.643 45.5241 161.389C49.063 160.295 52.8272 160.149 56.4403 160.966C60.2304 162.268 63.9346 163.808 67.531 165.576C76.8023 169.066 85.8244 165.751 92.4539 158.872C97.937 153.215 103.295 147.856 110.747 144.816C113.783 143.44 117.069 142.706 120.401 142.659C123.733 142.612 127.039 143.253 130.112 144.541C137.191 147.757 142.05 154.212 148.705 158.1C156.605 162.71 166.151 161.614 174.774 163.084C183.398 164.555 190.177 171.832 197.828 176.044C200.335 177.614 203.22 178.475 206.177 178.536C207.85 178.38 209.514 178.139 211.162 177.814C212.38 177.48 213.667 177.484 214.883 177.827C216.1 178.169 217.2 178.837 218.065 179.758C218.614 180.406 218.439 182.674 217.766 182.674Z" fill="#C6C0B4"/>
<path d="M961.564 713.531C981.383 711.824 1001.31 711.824 1021.13 713.531C1001.31 715.251 981.382 715.251 961.564 713.531Z" fill="#C6C0B4"/>
<path d="M1021.13 881.238C922.76 882.883 813.373 882.833 714.928 881.238C813.398 879.618 922.735 879.568 1021.13 881.238Z" fill="#C6C0B4"/>
<path d="M377.472 790.07C280.771 791.714 173.279 791.69 76.5029 790.07C173.303 788.45 280.871 788.425 377.472 790.07Z" fill="#C6C0B4"/>
<path d="M271.923 881.238C219.162 882.908 166.076 882.908 113.339 881.238C166.076 879.543 219.162 879.543 271.923 881.238Z" fill="#C6C0B4"/>
<path d="M608.108 933.377C501.936 935.047 383.802 934.997 277.655 933.377C383.927 931.757 501.961 931.732 608.108 933.377Z" fill="#C6C0B4"/>
<path d="M800.762 901.176C748.025 902.846 694.94 902.846 642.178 901.176C694.94 899.481 748.025 899.481 800.762 901.176Z" fill="#C6C0B4"/>
<path d="M587.123 849.885C534.387 851.555 481.301 851.555 428.539 849.885C481.301 848.215 534.387 848.215 587.123 849.885Z" fill="#C6C0B4"/>
<path d="M951.522 1022.75C898.785 1024.42 845.699 1024.42 792.938 1022.75C845.699 1021.08 898.785 1021.08 951.522 1022.75Z" fill="#C6C0B4"/>
<path d="M872.217 992.643C775.267 994.313 667.475 994.263 570.45 992.643C667.5 991.048 775.242 990.998 872.217 992.643Z" fill="#C6C0B4"/>
<path d="M369.397 719.912C316.66 721.582 263.549 721.582 210.812 719.912C263.549 718.242 316.635 718.242 369.397 719.912Z" fill="#C6C0B4"/>
<path d="M986.065 726.716C933.328 728.386 880.217 728.386 827.48 726.716C880.217 725.046 933.303 725.046 986.065 726.716Z" fill="#C6C0B4"/>
<path d="M327.826 692.247C240.596 693.917 143.396 693.867 55.917 692.247C143.347 690.652 240.346 690.602 327.826 692.247Z" fill="#C6C0B4"/>
<path d="M947.158 843.13C923.562 844.825 899.874 844.825 876.277 843.13C899.874 841.436 923.562 841.436 947.158 843.13Z" fill="#C6C0B4"/>
<path d="M391.927 953.838C302.205 955.483 202.513 955.458 112.791 953.838C202.513 952.218 302.205 952.168 391.927 953.838Z" fill="#C6C0B4"/>
<path d="M928.891 828.899C810.507 830.544 678.915 830.519 560.456 828.899C678.94 827.279 810.483 827.254 928.891 828.899V828.899Z" fill="#C6C0B4"/>
<path d="M505.95 1007.65C482.345 1009.34 458.649 1009.34 435.044 1007.65C458.649 1005.95 482.345 1005.95 505.95 1007.65Z" fill="#C6C0B4"/>
<path d="M20.9248 672.484C347.066 670.963 712.884 670.938 1039.03 672.484C712.884 674.029 347.066 674.004 20.9248 672.484Z" fill="#C6C0B4"/>
<g filter="url(#filter0_d_206_8)">
<path d="M379.867 50V12.1818H402.543V16.2443H384.446V29.0227H400.844V33.0852H384.446V50H379.867ZM442.295 31.0909C442.295 35.0795 441.575 38.5265 440.135 41.4318C438.694 44.3371 436.719 46.5777 434.207 48.1534C431.696 49.7292 428.827 50.517 425.602 50.517C422.377 50.517 419.508 49.7292 416.997 48.1534C414.486 46.5777 412.51 44.3371 411.069 41.4318C409.629 38.5265 408.909 35.0795 408.909 31.0909C408.909 27.1023 409.629 23.6553 411.069 20.75C412.51 17.8447 414.486 15.6042 416.997 14.0284C419.508 12.4527 422.377 11.6648 425.602 11.6648C428.827 11.6648 431.696 12.4527 434.207 14.0284C436.719 15.6042 438.694 17.8447 440.135 20.75C441.575 23.6553 442.295 27.1023 442.295 31.0909ZM437.863 31.0909C437.863 27.8163 437.316 25.0526 436.22 22.7997C435.137 20.5469 433.666 18.8419 431.807 17.6847C429.96 16.5275 427.892 15.9489 425.602 15.9489C423.312 15.9489 421.238 16.5275 419.379 17.6847C417.532 18.8419 416.061 20.5469 414.966 22.7997C413.882 25.0526 413.341 27.8163 413.341 31.0909C413.341 34.3655 413.882 37.1293 414.966 39.3821C416.061 41.6349 417.532 43.34 419.379 44.4972C421.238 45.6544 423.312 46.233 425.602 46.233C427.892 46.233 429.96 45.6544 431.807 44.4972C433.666 43.34 435.137 41.6349 436.22 39.3821C437.316 37.1293 437.863 34.3655 437.863 31.0909ZM449.996 50V12.1818H462.774C465.729 12.1818 468.154 12.6866 470.05 13.696C471.945 14.6932 473.349 16.0658 474.26 17.8139C475.171 19.562 475.626 21.5502 475.626 23.7784C475.626 26.0066 475.171 27.9825 474.26 29.706C473.349 31.4294 471.952 32.7836 470.068 33.7685C468.184 34.741 465.778 35.2273 462.848 35.2273H452.507V31.0909H462.7C464.719 31.0909 466.344 30.7955 467.575 30.2045C468.818 29.6136 469.717 28.7765 470.271 27.6932C470.837 26.5975 471.121 25.2926 471.121 23.7784C471.121 22.2642 470.837 20.9408 470.271 19.8082C469.705 18.6757 468.8 17.8016 467.557 17.1861C466.313 16.5582 464.67 16.2443 462.626 16.2443H454.575V50H449.996ZM467.797 33.0114L477.104 50H471.785L462.626 33.0114H467.797ZM483.257 50V12.1818H496.479C499.113 12.1818 501.286 12.6373 502.997 13.5483C504.709 14.447 505.983 15.6596 506.82 17.1861C507.657 18.7003 508.075 20.3807 508.075 22.2273C508.075 23.8523 507.786 25.1941 507.208 26.2528C506.641 27.3116 505.89 28.1487 504.955 28.7642C504.031 29.3797 503.028 29.8352 501.945 30.1307V30.5C503.102 30.5739 504.265 30.9801 505.435 31.7188C506.604 32.4574 507.583 33.5161 508.371 34.8949C509.159 36.2737 509.553 37.9602 509.553 39.9545C509.553 41.8504 509.122 43.5554 508.26 45.0696C507.398 46.5838 506.038 47.7841 504.179 48.6705C502.32 49.5568 499.901 50 496.922 50H483.257ZM487.837 45.9375H496.922C499.914 45.9375 502.037 45.3589 503.293 44.2017C504.561 43.0322 505.195 41.6165 505.195 39.9545C505.195 38.6742 504.869 37.4924 504.216 36.4091C503.564 35.3134 502.634 34.4394 501.428 33.7869C500.221 33.1222 498.793 32.7898 497.144 32.7898H487.837V45.9375ZM487.837 28.8011H496.331C497.71 28.8011 498.953 28.5303 500.061 27.9886C501.182 27.447 502.068 26.6837 502.72 25.6989C503.385 24.714 503.718 23.5568 503.718 22.2273C503.718 20.5653 503.139 19.1558 501.982 17.9986C500.825 16.8291 498.99 16.2443 496.479 16.2443H487.837V28.8011ZM521.657 12.1818V50H517.078V12.1818H521.657ZM542.51 50H530.839V12.1818H543.027C546.695 12.1818 549.835 12.9389 552.444 14.4531C555.054 15.955 557.055 18.1155 558.446 20.9347C559.837 23.7415 560.532 27.1023 560.532 31.017C560.532 34.9564 559.831 38.348 558.427 41.1918C557.024 44.0232 554.98 46.2022 552.297 47.7287C549.613 49.2429 546.351 50 542.51 50ZM535.419 45.9375H542.214C545.341 45.9375 547.933 45.3343 549.988 44.1278C552.044 42.9214 553.577 41.2041 554.586 38.9759C555.596 36.7476 556.101 34.0947 556.101 31.017C556.101 27.964 555.602 25.3357 554.605 23.1321C553.608 20.9162 552.118 19.2173 550.136 18.0355C548.154 16.8414 545.686 16.2443 542.731 16.2443H535.419V45.9375ZM579.885 50H568.214V12.1818H580.402C584.07 12.1818 587.21 12.9389 589.819 14.4531C592.429 15.955 594.43 18.1155 595.821 20.9347C597.212 23.7415 597.907 27.1023 597.907 31.017C597.907 34.9564 597.206 38.348 595.802 41.1918C594.399 44.0232 592.355 46.2022 589.672 47.7287C586.988 49.2429 583.726 50 579.885 50ZM572.794 45.9375H579.589C582.716 45.9375 585.308 45.3343 587.363 44.1278C589.419 42.9214 590.952 41.2041 591.961 38.9759C592.971 36.7476 593.476 34.0947 593.476 31.017C593.476 27.964 592.977 25.3357 591.98 23.1321C590.983 20.9162 589.493 19.2173 587.511 18.0355C585.529 16.8414 583.061 16.2443 580.106 16.2443H572.794V45.9375ZM605.589 50V12.1818H628.413V16.2443H610.169V29.0227H627.231V33.0852H610.169V45.9375H628.709V50H605.589ZM666.656 12.1818V50H662.224L641.616 20.3068H641.247V50H636.667V12.1818H641.099L661.781 41.9489H662.15V12.1818H666.656ZM680.99 12.1818L680.621 39.3636H676.337L675.968 12.1818H680.99ZM678.479 50.2955C677.568 50.2955 676.786 49.9692 676.134 49.3168C675.481 48.6643 675.155 47.8826 675.155 46.9716C675.155 46.0606 675.481 45.2789 676.134 44.6264C676.786 43.974 677.568 43.6477 678.479 43.6477C679.39 43.6477 680.172 43.974 680.824 44.6264C681.477 45.2789 681.803 46.0606 681.803 46.9716C681.803 47.5748 681.649 48.1288 681.341 48.6335C681.046 49.1383 680.646 49.5445 680.141 49.8523C679.648 50.1477 679.094 50.2955 678.479 50.2955Z" fill="#4E4E53"/>
</g>
<g filter="url(#filter1_d_206_8)">
<path d="M863.478 473.972C837.91 473.972 815.182 469.592 795.296 460.832C775.528 452.073 759.903 439.881 748.421 424.256C736.939 408.631 730.843 390.579 730.133 370.101H796.894C797.486 379.926 800.741 388.508 806.66 395.847C812.578 403.067 820.45 408.69 830.275 412.714C840.099 416.739 851.108 418.751 863.3 418.751C876.321 418.751 887.862 416.502 897.924 412.004C907.985 407.388 915.857 400.996 921.539 392.828C927.221 384.661 930.002 375.25 929.884 364.597C930.002 353.588 927.162 343.882 921.361 335.477C915.561 327.073 907.157 320.503 896.148 315.768C885.258 311.034 872.119 308.666 856.731 308.666H824.593V257.885H856.731C869.396 257.885 880.464 255.695 889.934 251.315C899.522 246.936 907.038 240.78 912.483 232.849C917.929 224.8 920.592 215.508 920.474 204.973C920.592 194.675 918.284 185.738 913.549 178.162C908.932 170.468 902.363 164.49 893.84 160.229C885.436 155.967 875.552 153.837 864.188 153.837C853.061 153.837 842.763 155.849 833.293 159.874C823.823 163.898 816.189 169.639 810.388 177.097C804.588 184.436 801.51 193.195 801.155 203.375H737.768C738.241 183.015 744.1 165.141 755.346 149.753C766.709 134.246 781.861 122.172 800.8 113.531C819.74 104.772 840.987 100.392 864.543 100.392C888.809 100.392 909.879 104.949 927.753 114.064C945.746 123.06 959.654 135.193 969.479 150.463C979.304 165.733 984.216 182.601 984.216 201.067C984.335 221.545 978.298 238.709 966.106 252.558C954.032 266.408 938.17 275.463 918.52 279.724V282.565C944.089 286.116 963.679 295.586 977.292 310.974C991.023 326.244 997.829 345.243 997.711 367.97C997.711 388.33 991.911 406.559 980.31 422.658C968.828 438.638 952.966 451.185 932.725 460.3C912.602 469.414 889.519 473.972 863.478 473.972Z" fill="#F5C22A"/>
</g>
<path d="M339.813 382.779C339.811 386.711 339.026 390.603 337.504 394.228C335.982 397.853 333.754 401.14 330.95 403.895C328.145 406.651 324.821 408.821 321.169 410.279C317.518 411.737 313.613 412.454 309.682 412.388H304.298V453.311C304.075 461.012 300.859 468.322 295.333 473.69C289.807 479.058 282.406 482.061 274.702 482.061C266.998 482.061 259.598 479.058 254.072 473.69C248.546 468.322 245.33 461.012 245.106 453.311V412.413H75.6307C68.935 412.659 62.3959 410.351 57.3373 405.958C54.2189 403.612 51.6093 400.658 49.667 397.274C47.7246 393.89 46.4899 390.146 46.0378 386.27C45.5857 382.395 45.9255 378.467 47.0368 374.727C48.148 370.987 50.0074 367.511 52.5023 364.511L251.586 117.002C252.135 117.002 252.135 116.453 252.658 115.93C253.326 115.312 253.875 114.577 254.278 113.762C255.305 113.487 256.236 112.935 256.97 112.167C257.493 111.618 258.59 111.07 259.113 110.547C260.06 109.87 261.19 109.496 262.353 109.475C262.876 108.378 263.425 107.855 264.496 107.855C265.045 107.307 266.116 107.307 267.736 106.783C268.493 106.862 269.254 106.667 269.88 106.235H279.027C279.851 106.677 280.787 106.867 281.718 106.783C282.267 107.307 283.862 107.307 284.958 107.855C285.482 107.855 286.553 108.378 287.102 108.378C288.173 109.475 289.245 109.998 289.793 110.547C290.865 111.07 291.413 111.618 292.485 112.167C292.624 112.167 292.757 112.222 292.855 112.32C292.953 112.418 293.008 112.551 293.008 112.69C293.557 112.69 294.628 113.238 294.628 113.762L296.797 115.93C297.32 116.453 297.868 117.525 298.392 118.073C299.222 118.878 299.95 119.782 300.56 120.765C300.683 121.574 301.058 122.324 301.632 122.908C302.082 123.955 302.441 125.039 302.703 126.148C302.703 126.672 303.252 127.768 303.252 128.292C303.725 129.302 303.906 130.424 303.775 131.532C303.775 132.603 304.323 133.152 304.323 134.223V353.221H309.707C317.613 353.168 325.219 356.247 330.861 361.786C336.502 367.325 339.721 374.873 339.813 382.779V382.779ZM245.106 220.282L137.938 353.196H245.106V220.282Z" fill="#F5C22A"/>
<g opacity="0.2">
<path d="M689.607 294.578C689.607 351.9 674.479 404.986 647.363 445.361C620.82 485.238 579.199 515.444 530.599 515.444C480.753 515.444 439.755 485.163 413.212 445.361C385.473 404.986 370.843 352 370.345 294.578C370.968 236.507 385.473 184.144 413.212 143.744C439.755 103.369 480.753 73.7109 530.599 73.7109C579.199 73.7109 620.82 103.369 647.363 143.744C674.529 184.144 689.607 236.507 689.607 294.578Z" fill="#F5C22A"/>
</g>
<g opacity="0.2">
<path d="M666.827 294.578C666.827 343.8 653.842 389.285 630.589 423.828C607.86 457.947 572.17 483.892 530.524 483.892C487.781 483.892 452.64 457.947 429.885 423.828C406.109 389.21 393.672 343.8 393.124 294.578C393.672 244.732 406.109 199.871 429.885 165.278C452.64 130.66 487.781 105.238 530.524 105.238C572.17 105.238 607.785 130.66 630.589 165.278C653.842 199.92 666.827 244.807 666.827 294.578Z" fill="#F5C22A"/>
</g>
<g opacity="0.2">
<path d="M629.817 294.577C629.817 330.491 620.346 363.614 603.374 388.886C586.8 413.808 560.756 432.7 530.375 432.7C499.196 432.7 473.55 413.759 456.952 388.886C439.506 363.614 430.534 330.491 430.135 294.577C430.534 258.265 439.605 225.516 456.952 200.244C473.55 174.997 499.321 156.43 530.375 156.43C560.756 156.43 586.8 174.997 603.374 200.244C620.346 225.516 629.817 258.165 629.817 294.577Z" fill="#F5C22A"/>
</g>
<path d="M634.179 785.608H425.773L431.605 702.067L437.462 618.525L443.294 534.959L449.151 451.417L454.983 367.851H604.969L610.801 451.417L616.658 534.959L622.49 618.525L628.347 702.067L634.179 785.608Z" fill="#F5C22A"/>
<path opacity="0.1" d="M610.8 451.417H449.15L454.982 367.851H604.968L610.8 451.417Z" fill="#1B1B22"/>
<path opacity="0.1" d="M634.179 785.608H425.773L431.605 702.067H628.347L634.179 785.608Z" fill="#1B1B22"/>
<path opacity="0.1" d="M622.489 618.525H437.462L443.294 534.959H616.658L622.489 618.525Z" fill="#1B1B22"/>
<path opacity="0.1" d="M454.983 367.851H492.666L543.833 785.608H425.773L454.983 367.851Z" fill="#1B1B22"/>
<path d="M529.976 402.245C527.299 402.245 524.731 403.308 522.838 405.201C520.946 407.094 519.882 409.661 519.882 412.338L517.764 434.246H542.188L540.07 412.338C540.07 409.661 539.006 407.094 537.113 405.201C535.22 403.308 532.653 402.245 529.976 402.245V402.245Z" fill="#1B1B22"/>
<path d="M570.75 480.577C569.43 480.56 568.12 480.806 566.896 481.3C565.673 481.793 564.559 482.525 563.62 483.452C562.681 484.38 561.935 485.484 561.427 486.702C560.918 487.92 560.656 489.226 560.656 490.546L558.513 512.453H582.962L580.844 490.546C580.811 487.891 579.733 485.355 577.843 483.489C575.954 481.623 573.405 480.577 570.75 480.577V480.577Z" fill="#1B1B22"/>
<path d="M469.064 563.421C466.408 563.421 463.859 564.467 461.97 566.333C460.081 568.199 459.003 570.735 458.97 573.39L456.852 595.297H481.276L479.158 573.39C479.118 570.737 478.038 568.205 476.15 566.34C474.262 564.476 471.717 563.427 469.064 563.421V563.421Z" fill="#1B1B22"/>
<path d="M529.976 646.614C528.656 646.597 527.346 646.843 526.123 647.336C524.899 647.83 523.785 648.562 522.846 649.489C521.907 650.416 521.161 651.521 520.653 652.739C520.144 653.956 519.882 655.263 519.882 656.583L517.764 678.515H542.188L540.07 656.583C540.07 655.263 539.808 653.956 539.299 652.739C538.79 651.521 538.045 650.416 537.106 649.489C536.167 648.562 535.053 647.83 533.829 647.336C532.605 646.843 531.295 646.597 529.976 646.614Z" fill="#1B1B22"/>
<path d="M575.385 247.374H484.566C484.657 235.672 489.259 224.457 497.414 216.064C505.568 207.671 516.646 202.749 528.34 202.321C540.035 201.894 551.443 205.995 560.188 213.77C568.933 221.546 574.341 232.395 575.286 244.059C575.361 245.156 575.385 246.277 575.385 247.374Z" fill="#F5C22A"/>
<path opacity="0.1" d="M575.41 247.374H484.566C484.556 244.412 484.84 241.457 485.413 238.551L573.241 233.566C574.335 236.988 575.021 240.527 575.285 244.109C575.36 245.156 575.41 246.252 575.41 247.374Z" fill="#1B1B22"/>
<path d="M490.946 302.827V244.707H484.566V302.827H490.946Z" fill="#4E4E53"/>
<path d="M507.819 302.827V244.707H501.439V302.827H507.819Z" fill="#4E4E53"/>
<path d="M597 693.5C597.144 691.613 597.545 689.622 596.585 687.781C596.258 687.136 594.57 684.088 592.363 684.149C590.156 684.211 590.698 685.501 590.53 685.937C590.419 687.8 590.946 689.662 592.091 691.455C593.579 695.099 594.493 698.786 594.826 702.487L594.821 703.207L594.817 703.799C594.817 703.799 594.816 703.927 594.815 703.979L594.814 704.133C594.879 704.155 594.956 704.166 595.035 704.167C595.114 704.168 595.191 704.157 595.256 704.136L595.259 703.673L595.256 704.033L595.259 703.647L596 700.5C597.251 697.344 596.553 696.707 597 693.5Z" fill="#22665D"/>
<path d="M596.295 693.568C596.354 691.74 596.162 689.911 595.722 688.135C595.573 687.512 594.8 684.571 593.803 684.646C592.806 684.721 593.055 685.967 592.981 686.391C592.937 688.196 593.181 689.996 593.703 691.724C594.388 695.244 594.812 698.809 594.974 702.391V703.089V703.662C594.974 703.662 594.974 703.787 594.974 703.837V703.986C595.004 704.006 595.038 704.017 595.074 704.017C595.11 704.017 595.145 704.006 595.174 703.986V703.538V703.886V703.513V702.84C595.729 699.774 596.104 696.678 596.295 693.568ZM595.099 701.643C595.099 699.55 594.8 697.456 594.501 695.388C594.202 693.319 593.953 692.048 593.579 690.403C593.355 689.478 593.205 688.536 593.13 687.587C593.13 686.839 593.13 684.147 594.601 685.817C595.49 687.437 595.961 689.253 595.971 691.101C596.133 692.759 596.133 694.428 595.971 696.086C595.697 697.93 595.373 699.774 595.099 701.643Z" fill="#FFF8EC"/>
<path d="M524.717 302.827V244.707H518.337V302.827H524.717Z" fill="#4E4E53"/>
<path d="M541.614 302.827V244.707H535.234V302.827H541.614Z" fill="#4E4E53"/>
<path d="M558.487 302.827V244.707H552.107V302.827H558.487Z" fill="#4E4E53"/>
<path d="M580.768 276.559H479.183V281.493H580.768V276.559Z" fill="#4E4E53"/>
<path d="M575.385 302.827V244.707H569.005V302.827H575.385Z" fill="#4E4E53"/>
<path d="M584.607 302.827H475.345V355.365H584.607V302.827Z" fill="#F5C22A"/>
<path opacity="0.1" d="M584.607 302.827V312.697L475.345 330.442V302.827H584.607Z" fill="#1B1B22"/>
<g opacity="0.05">
<path d="M606.115 641.305H581.69V651.623H606.115V641.305Z" fill="#1B1B22"/>
<path d="M592.482 654.315H568.058V664.633H592.482V654.315Z" fill="#1B1B22"/>
<path d="M515.994 488.728H491.569V499.046H515.994V488.728Z" fill="#1B1B22"/>
<path d="M502.361 501.737H477.937V512.055H502.361V501.737Z" fill="#1B1B22"/>
<path d="M488.778 488.728H464.354V499.046H488.778V488.728Z" fill="#1B1B22"/>
<path d="M541.291 220.731H522.599V228.632H541.291V220.731Z" fill="#1B1B22"/>
<path d="M530.847 230.701H512.155V238.601H530.847V230.701Z" fill="#1B1B22"/>
<path d="M520.479 220.731H501.787V228.632H520.479V220.731Z" fill="#1B1B22"/>
<path d="M475.344 650.203H450.92V660.521H475.344V650.203Z" fill="#1B1B22"/>
<path d="M577.603 402.245H553.179V412.563H577.603V402.245Z" fill="#1B1B22"/>
<path d="M591.211 415.279H566.786V425.597H591.211V415.279Z" fill="#1B1B22"/>
<path d="M554.4 317.432H529.976V327.75H554.4V317.432Z" fill="#1B1B22"/>
<path d="M568.033 330.442H543.608V340.76H568.033V330.442Z" fill="#1B1B22"/>
<path d="M552.631 558.835H528.206V569.153H552.631V558.835Z" fill="#1B1B22"/>
</g>
<path d="M621.443 350.056H438.509V385.671H621.443V350.056Z" fill="#4E4E53"/>
<path d="M591.061 294.578H468.864V307.438H591.061V294.578Z" fill="#4E4E53"/>
<path d="M580.768 244.707H479.183V255.399H580.768V244.707Z" fill="#4E4E53"/>
<path d="M593.006 701.145C589.068 701.27 584.707 701.494 581.442 698.952C579.799 697.865 578.457 696.382 577.538 694.64C576.619 692.898 576.153 690.952 576.183 688.983C576.183 687.836 576.557 687.138 577.778 687.637C579.602 688.701 581.175 690.146 582.389 691.874C584.025 693.768 585.845 695.497 587.822 697.033C589.218 698.105 590.738 699.027 592.159 700.073L592.682 700.472L592.881 700.622H593.006C593.029 700.611 593.055 700.605 593.081 700.605C593.107 700.605 593.132 700.611 593.156 700.622C593.156 700.622 593.156 700.622 593.156 700.622C593.225 700.642 593.284 700.688 593.319 700.751C593.354 700.814 593.362 700.889 593.342 700.958C593.323 701.028 593.276 701.086 593.213 701.121C593.15 701.156 593.075 701.165 593.006 701.145Z" fill="#22665D"/>
<path d="M593.18 700.871C589.741 700.871 586.027 700.871 583.211 698.628C581.942 697.515 580.865 696.201 580.021 694.74C579.622 694.092 578.426 692.248 578.924 691.4C579.821 690.004 583.909 695.687 584.482 696.21C586.64 698.166 589.267 699.531 592.108 700.173L592.632 700.572C590.622 700.159 588.694 699.418 586.924 698.379C584.752 696.787 582.821 694.89 581.192 692.746C580.768 692.297 579.522 690.852 579.074 691.749C578.625 692.646 579.896 694.241 580.145 694.665C580.969 696.04 581.994 697.283 583.186 698.354C585.928 700.846 589.641 700.671 593.155 700.846C593.18 700.821 593.18 700.846 593.18 700.871Z" fill="#FFF8EC"/>
<path d="M597.268 714.254H597.118C593.529 714.08 588.769 714.404 585.778 712.036C584.518 711.108 583.519 709.87 582.877 708.442C582.235 707.014 581.973 705.445 582.115 703.886C582.887 700.572 587.373 704.559 588.545 705.506C591.637 708.187 594.574 711.041 597.343 714.055V714.055L597.268 714.254Z" fill="#22665D"/>
<path d="M597.392 714.254L596.769 713.881C594.426 712.385 592.109 710.79 589.915 709.095C589.342 708.672 585.305 705.083 584.706 706.379C584.333 707.151 585.678 708.722 586.102 709.27C586.866 710.243 587.784 711.084 588.819 711.762C591.347 712.985 594.043 713.825 596.819 714.254H597.193C597.193 714.254 597.417 714.254 597.392 714.254ZM590.289 712.211C589.148 711.693 588.103 710.985 587.199 710.117C586.601 709.544 584.482 707.401 585.055 706.528C585.354 706.055 585.604 706.304 586.177 706.528L586.925 706.977C587.523 707.376 588.071 707.824 588.644 708.273C589.616 709.071 590.613 709.818 591.635 710.566C593.305 711.787 595.025 712.934 596.769 714.005C594.572 713.52 592.408 712.895 590.289 712.136V712.211Z" fill="#FFF8EC"/>
<path d="M603.822 706.902C602.886 711.016 600.742 714.756 597.666 717.644V717.644C597.636 717.662 597.602 717.671 597.567 717.671C597.532 717.671 597.497 717.662 597.467 717.644C597.467 717.644 597.467 717.494 597.467 717.42L597.641 717.245C598.239 712.261 598.887 707.525 599.411 702.64C599.411 701.469 600.408 694.142 602.676 695.338C604.071 696.086 604.146 699.077 604.271 700.323C604.467 702.526 604.316 704.746 603.822 706.902V706.902Z" fill="#22665D"/>
<path d="M602.526 700.372C602.401 699.948 602.177 699.55 601.728 699.824C600.856 700.372 600.507 703.811 600.357 704.808C599.759 708.721 598.837 712.509 597.865 716.372C597.865 716.696 597.691 717.02 597.616 717.344L597.392 717.644C597.422 717.661 597.456 717.67 597.491 717.67C597.526 717.67 597.561 717.661 597.591 717.644L597.89 717.245C599.423 715.142 600.617 712.813 601.429 710.341C601.951 708.772 602.302 707.151 602.476 705.506C602.813 703.813 602.83 702.071 602.526 700.372V700.372ZM597.915 716.921C597.86 716.977 597.817 717.045 597.79 717.12C597.817 716.983 597.859 716.849 597.915 716.721C598.83 713.787 599.563 710.799 600.108 707.774C600.357 706.229 600.532 704.684 600.831 703.138C600.981 702.515 601.28 700.646 601.828 700.372C602.376 700.098 602.351 700.796 602.401 701.194C602.425 701.568 602.425 701.942 602.401 702.316C602.472 707.534 600.903 712.642 597.915 716.921V716.921Z" fill="#FFF8EC"/>
<path d="M598.265 728.162H597.542C597.542 727.514 597.542 726.89 597.542 726.267C597.542 723.775 597.342 721.158 597.193 718.616C597.193 717.171 597.018 715.725 596.844 714.304V714.255C596.844 714.255 596.844 714.005 596.844 713.906C596.856 713.781 596.856 713.656 596.844 713.532C596.521 710.295 595.68 707.131 594.352 704.161C593.903 703.164 593.405 702.192 592.881 701.245L592.732 700.971L592.582 700.672L592.458 700.472C590.813 697.556 588.894 694.765 587.099 691.949L585.579 689.456V689.307V689.132C583.336 685.568 581.093 681.955 578.75 678.465C578.75 678.341 578.875 678.216 578.949 678.341C580.544 680.683 582.189 682.951 583.809 685.244L584.457 686.166L585.753 687.986L588.246 691.649C590.651 695.083 592.856 698.653 594.85 702.341L595.249 703.189L595.498 703.712C595.498 703.912 595.673 704.111 595.772 704.335C597.255 707.925 598.098 711.745 598.265 715.625C598.265 715.899 598.265 716.174 598.265 716.448C598.253 716.572 598.253 716.697 598.265 716.822V717.021C598.252 717.104 598.252 717.188 598.265 717.27V717.27V717.47C598.265 717.719 598.265 717.943 598.265 718.167C598.265 720.66 598.439 723.277 598.489 725.819L598.265 728.162Z" fill="#22665D"/>
<path d="M576.855 682.004C574.911 679.362 572.394 673.929 575.285 671.088C575.809 670.542 576.517 670.21 577.271 670.155C578.026 670.099 578.774 670.325 579.372 670.789C580.801 672.107 581.756 673.858 582.089 675.773C583.41 680.409 584.282 685.119 585.952 689.63C586.022 689.792 586.08 689.959 586.126 690.129C586.126 690.129 586.126 690.129 585.977 690.129L585.827 689.705C582.467 687.603 579.442 685.007 576.855 682.004V682.004Z" fill="#1B1B22"/>
<path d="M585.977 689.58C585.29 688.483 584.674 687.343 584.133 686.166C583.046 683.732 582.106 681.235 581.317 678.689C581.018 677.692 579.597 672.832 577.853 674.776C577.265 675.757 577.086 676.93 577.354 678.041C577.555 679.635 578.063 681.176 578.849 682.577C580.519 685.282 582.745 687.601 585.379 689.381L585.728 689.655V689.78H585.878C585.878 689.78 586.002 689.605 585.977 689.58ZM585.205 689.032C583.104 687.472 581.248 685.607 579.697 683.499C578.904 682.371 578.29 681.127 577.878 679.811C577.703 679.233 577.578 678.641 577.504 678.041C577.454 677.586 577.454 677.126 577.504 676.67C577.504 675.674 577.927 674.602 578.526 674.477C579.124 674.353 579.498 674.776 579.971 675.624C580.145 675.901 580.295 676.193 580.42 676.496C580.734 677.243 581 678.008 581.217 678.789C581.641 680.085 582.04 681.281 582.513 682.627C582.812 683.474 583.161 684.322 583.51 685.119C584.133 686.564 584.858 687.964 585.678 689.306L585.205 689.032Z" fill="#FFF8EC"/>
<path d="M375.454 711.762C372.064 712.609 368.276 713.582 364.986 711.937C363.375 711.288 361.951 710.25 360.842 708.914C359.732 707.578 358.972 705.988 358.631 704.285C358.631 703.263 358.631 702.615 359.777 702.815C361.568 703.41 363.203 704.398 364.563 705.706C366.335 707.051 368.229 708.227 370.22 709.22C371.641 709.893 373.111 710.441 374.532 711.089L375.08 711.338H375.279C375.279 711.338 375.279 711.338 375.429 711.338C375.457 711.337 375.485 711.341 375.511 711.35C375.537 711.359 375.562 711.373 375.582 711.392C375.603 711.41 375.62 711.433 375.632 711.458C375.644 711.483 375.652 711.51 375.653 711.538C375.655 711.566 375.651 711.593 375.642 711.62C375.633 711.646 375.618 711.67 375.6 711.691C375.581 711.712 375.559 711.729 375.534 711.741C375.509 711.753 375.482 711.76 375.454 711.762Z" fill="#1B1B22"/>
<path d="M375.454 711.463C372.438 712.036 369.223 712.834 366.382 711.288C365.086 710.528 363.91 709.578 362.893 708.472C362.444 707.974 361.048 706.503 361.347 705.756C361.871 704.36 366.481 708.572 367.08 708.946C369.3 710.265 371.825 710.986 374.407 711.039L374.955 711.288C373.124 711.278 371.307 710.975 369.572 710.391C367.393 709.391 365.37 708.081 363.565 706.503C363.142 706.204 361.796 705.157 361.547 706.03C361.297 706.902 362.718 708.048 363.017 708.372C363.974 709.421 365.083 710.32 366.307 711.039C369.148 712.634 372.363 711.911 375.404 711.413L375.454 711.463Z" fill="#FFF8EC"/>
<path d="M377.746 713.432V713.831C377.719 713.855 377.683 713.869 377.647 713.869C377.61 713.869 377.574 713.855 377.547 713.831V713.656C376.475 711.538 375.752 709.22 374.656 707.101C373.559 704.983 372.413 703.089 371.516 700.97C370.942 699.65 368.55 692.87 371.79 693.095C373.235 693.095 374.581 694.989 375.329 696.061C376.328 697.515 377.062 699.135 377.497 700.846C378.134 705.012 378.218 709.244 377.746 713.432V713.432Z" fill="#1B1B22"/>
<path d="M376.949 704.535C376.672 702.93 376.177 701.37 375.479 699.899C375.23 699.4 374.033 696.958 373.161 697.207C372.289 697.456 372.762 698.478 372.787 698.852C373.064 700.435 373.585 701.965 374.332 703.388C375.577 706.332 376.601 709.365 377.398 712.46C377.385 712.668 377.385 712.876 377.398 713.083C377.398 713.258 377.398 713.407 377.398 713.582V713.906C377.425 713.93 377.461 713.944 377.498 713.944C377.534 713.944 377.57 713.93 377.597 713.906C377.585 713.773 377.585 713.639 377.597 713.507C377.588 713.615 377.588 713.723 377.597 713.831V713.831V713.432C377.597 713.258 377.597 713.083 377.597 712.909C377.531 710.108 377.315 707.312 376.949 704.535V704.535ZM377.348 711.787C376.875 709.968 376.326 708.198 375.703 706.429C375.08 704.659 374.607 703.612 374.008 702.242C373.638 701.438 373.337 700.605 373.111 699.749C372.962 699.126 372.563 696.759 374.083 697.955C375.152 699.206 375.889 700.706 376.227 702.316C376.617 703.745 376.884 705.204 377.024 706.678C377.199 708.447 377.248 710.117 377.348 711.762V711.787Z" fill="#FFF8EC"/>
<path d="M381.51 722.429H381.385C378.22 722.902 374.108 724.049 371.092 722.429C369.825 721.845 368.731 720.944 367.914 719.814C367.098 718.683 366.587 717.36 366.432 715.974C366.432 712.933 371.142 715.6 372.338 716.223C375.509 718.014 378.579 719.977 381.535 722.105V722.105C381.535 722.105 381.585 722.404 381.51 722.429Z" fill="#1B1B22"/>
<path d="M381.584 722.304L380.986 722.08C378.668 721.208 376.375 720.236 374.157 719.164C373.584 718.89 369.422 716.472 369.173 717.718C368.998 718.441 370.444 719.588 370.892 719.986C371.733 720.682 372.685 721.23 373.709 721.606C376.147 722.245 378.668 722.506 381.186 722.379H381.609C381.609 722.379 381.634 722.354 381.584 722.304ZM375.055 721.806C373.96 721.559 372.915 721.129 371.964 720.535C371.341 720.136 369.123 718.641 369.472 717.793C369.821 716.946 369.92 717.494 370.469 717.644C370.718 717.7 370.96 717.784 371.191 717.893C371.789 718.131 372.372 718.406 372.936 718.715C373.933 719.214 374.93 719.712 375.952 720.161C377.622 720.933 379.316 721.606 380.936 722.254C378.967 722.191 377.004 722.016 375.055 721.731V721.806Z" fill="#FFF8EC"/>
<path d="M385.897 714.803C385.808 718.555 384.612 722.197 382.457 725.271V725.271C382.432 725.289 382.401 725.299 382.37 725.299C382.339 725.299 382.308 725.289 382.283 725.271C382.258 725.243 382.245 725.208 382.245 725.171C382.245 725.134 382.258 725.099 382.283 725.071V724.897C381.934 720.535 381.635 716.199 381.186 711.837C381.186 710.815 380.563 704.36 382.756 704.884C384.102 705.282 384.7 707.899 385.049 709.046C385.63 710.909 385.916 712.852 385.897 714.803V714.803Z" fill="#1B1B22"/>
<path d="M383.579 709.27C383.404 708.946 383.155 708.622 382.806 708.946C382.457 709.27 382.457 712.634 382.507 713.507C382.681 717.046 382.507 720.51 382.507 724.024C382.507 724.323 382.507 724.622 382.507 724.921L382.357 725.22C382.383 725.239 382.413 725.248 382.445 725.248C382.476 725.248 382.506 725.239 382.532 725.22C382.613 725.095 382.68 724.962 382.731 724.822V724.822C383.689 722.713 384.311 720.468 384.576 718.167C384.725 716.701 384.725 715.222 384.576 713.756C384.534 712.21 384.196 710.687 383.579 709.27V709.27ZM382.532 724.523V724.722C382.532 724.597 382.532 724.473 382.532 724.348C382.806 721.624 382.906 718.885 382.831 716.148C382.831 714.778 382.656 713.382 382.656 712.011C382.656 711.413 382.656 709.743 383.005 709.394C383.354 709.045 383.529 709.668 383.653 710.017C383.76 710.335 383.843 710.66 383.903 710.989C384.911 715.555 384.431 720.324 382.532 724.597V724.523Z" fill="#FFF8EC"/>
<path d="M384.874 734.317L384.226 734.467L383.853 732.822C383.329 730.604 382.781 728.41 382.183 726.217C381.859 724.971 381.51 723.725 381.111 722.504C381.109 722.462 381.109 722.421 381.111 722.379C381.111 722.379 381.111 722.18 381.111 722.08C381.111 721.98 381.111 721.881 381.111 721.756C380.249 719.001 378.953 716.402 377.273 714.055C376.7 713.257 376.102 712.51 375.454 711.762C375.409 711.685 375.35 711.617 375.279 711.563V711.563L375.105 711.338L374.955 711.189C372.986 708.946 370.818 706.852 368.749 704.734L366.98 702.889V702.765L366.83 702.64C364.338 699.949 361.646 697.207 358.979 694.565C358.979 694.565 358.979 694.341 359.129 694.441C360.923 696.16 362.768 697.88 364.612 699.575L365.335 700.273L366.78 701.618C367.752 702.516 368.699 703.438 369.622 704.36C372.338 706.914 374.902 709.627 377.298 712.485L377.796 713.158C377.918 713.288 378.026 713.43 378.12 713.581L378.469 714.055C380.388 716.926 381.781 720.116 382.581 723.476C382.581 723.7 382.731 723.949 382.781 724.174C382.77 724.281 382.77 724.39 382.781 724.498C382.781 724.498 382.781 724.622 382.781 724.672V724.896C382.781 724.896 382.781 725.021 382.781 725.071L382.93 725.669C383.479 727.887 384.002 730.08 384.501 732.298L384.874 734.317Z" fill="#1B1B22"/>
<path d="M358.008 697.93C355.814 695.986 352.649 691.699 354.668 688.708C355.025 688.135 355.583 687.715 356.232 687.531C356.882 687.347 357.577 687.411 358.182 687.711C359.655 688.577 360.795 689.91 361.422 691.499C363.416 695.288 365.036 699.25 367.279 702.889L367.528 703.288L367.304 702.939C363.969 701.751 360.834 700.061 358.008 697.93V697.93Z" fill="#1B1B22"/>
<path d="M367.229 702.89C366.442 702.05 365.702 701.168 365.011 700.248C363.618 698.291 362.344 696.252 361.198 694.142C360.749 693.344 358.705 689.356 357.484 691.375C357.1 692.309 357.1 693.357 357.484 694.291C357.955 695.647 358.683 696.899 359.627 697.98C361.551 700.054 363.908 701.679 366.531 702.74L366.88 702.914H367.005L367.229 702.89ZM366.456 702.565C364.342 701.579 362.386 700.285 360.649 698.727C359.766 697.883 359.018 696.908 358.431 695.836C358.179 695.363 357.963 694.871 357.783 694.366C357.637 693.987 357.529 693.594 357.459 693.194C357.31 692.322 357.459 691.3 357.958 691.101C358.456 690.902 358.88 691.101 359.428 691.824C359.624 692.045 359.807 692.278 359.976 692.522C360.375 693.095 360.749 693.743 361.098 694.366C361.671 695.413 362.269 696.459 362.892 697.481C363.515 698.503 363.765 698.852 364.238 699.5C365.033 700.648 365.908 701.739 366.855 702.765L366.456 702.565Z" fill="#FFF8EC"/>
<path d="M649.606 693.992C646.104 698.385 641.646 701.923 636.571 704.335C633.954 705.73 631.263 707.001 628.596 708.322C626.155 709.384 623.825 710.686 621.642 712.21C621.54 712.27 621.447 712.346 621.368 712.435C620.79 712.909 620.264 713.444 619.798 714.03H619.674V714.229C619.674 714.229 619.549 714.229 619.674 714.229C619.798 714.229 619.674 714.055 619.674 713.98V713.805V713.556C621.269 707.874 626.178 702.615 630.266 698.602C634.222 694.478 639.242 691.528 644.771 690.079C646.167 689.755 649.407 688.783 650.603 690.079C651.799 691.375 650.404 693.02 649.606 693.992Z" fill="#22665D"/>
<path d="M645.767 693.419C644.745 692.048 640.782 694.49 639.761 695.064C636.777 696.825 633.957 698.852 631.337 701.12C626.916 704.568 623.065 708.689 619.922 713.332V713.332L619.772 713.482V713.731V713.905L619.972 713.731C620.495 713.257 621.044 712.809 621.592 712.36C621.67 712.271 621.763 712.195 621.866 712.136C625.842 709.171 630.004 706.466 634.327 704.036C637.305 702.297 640.109 700.277 642.702 698.004C643.2 697.481 646.639 694.59 645.767 693.419ZM644.272 695.911C640.533 700.447 634.801 703.388 629.841 706.279C626.457 708.22 623.261 710.473 620.296 713.008C623.288 708.908 626.817 705.228 630.788 702.067C632.985 700.173 635.29 698.408 637.692 696.783C638.979 695.898 640.328 695.106 641.73 694.416C642.578 693.997 643.473 693.679 644.396 693.468C646.141 693.219 644.895 695.138 644.272 695.911V695.911Z" fill="#FFF8EC"/>
<path d="M634.154 716.323C633.25 718.575 631.873 720.606 630.116 722.28C626.752 725.719 622.639 728.386 619.125 731.576L617.555 733.046L617.057 733.794L617.331 732.972C618.895 728.234 620.968 723.68 623.512 719.389C625.079 717.066 626.92 714.94 628.995 713.058C630.017 712.211 632.359 710.416 633.805 711.089C635.25 711.762 634.652 715.127 634.154 716.323Z" fill="#22665D"/>
<path d="M631.885 714.379C630.415 713.133 625.081 720.037 624.408 720.909C621.784 724.202 619.598 727.821 617.903 731.675C617.704 732.099 617.53 732.523 617.355 732.972L617.081 733.794C617.081 733.794 617.53 733.096 617.579 733.046L617.854 732.772L619.15 731.576C621.393 729.084 623.661 726.591 625.854 724.099C627.439 722.295 628.88 720.37 630.166 718.342C630.44 717.968 632.533 714.927 631.885 714.379ZM631.113 716.448C627.823 722.628 622.34 727.09 617.854 732.348L617.629 732.623L617.854 732.124C619.313 728.971 621.074 725.966 623.112 723.152C624.344 721.407 625.684 719.743 627.125 718.167C627.898 717.28 628.73 716.448 629.617 715.675C629.991 715.351 631.113 714.504 631.412 714.728C631.711 714.952 631.337 716.024 631.113 716.448Z" fill="#FFF8EC"/>
<path d="M658.503 664.782C652.023 675.2 638.565 678.515 631.412 688.434C631.188 688.733 630.988 689.057 630.789 689.356C630.768 689.387 630.741 689.413 630.708 689.43C630.675 689.448 630.639 689.457 630.602 689.457C630.565 689.457 630.529 689.448 630.496 689.43C630.463 689.413 630.435 689.387 630.415 689.356C630.415 689.356 630.415 689.356 630.415 689.182L630.565 688.958C632.654 682.259 635.939 675.994 640.26 670.465C643.642 665.53 648.438 661.733 654.017 659.574C655.413 659.1 658.154 658.053 659.45 659.374C660.746 660.695 659.326 663.486 658.503 664.782Z" fill="#22665D"/>
<path d="M654.066 664.608C653.518 664.059 652.521 664.483 651.948 664.608C650.521 665.101 649.157 665.762 647.885 666.577C645.293 668.256 642.966 670.315 640.982 672.683C637.462 676.621 634.448 680.983 632.01 685.668C631.463 686.73 630.973 687.82 630.539 688.933L630.39 689.331C630.41 689.362 630.438 689.387 630.47 689.405C630.503 689.422 630.54 689.432 630.577 689.432C630.614 689.432 630.65 689.422 630.683 689.405C630.715 689.387 630.743 689.362 630.763 689.331C630.938 689.032 631.162 688.733 631.362 688.434C632.636 686.349 634.113 684.396 635.773 682.602C638.444 679.922 641.292 677.424 644.297 675.125C645.493 674.103 655.985 666.502 654.066 664.608ZM652.92 667.1C650.879 669.373 648.607 671.428 646.141 673.231C643.798 675.175 641.43 677.094 639.113 679.088C637.269 680.662 635.56 682.388 634.003 684.247C632.706 685.799 631.554 687.468 630.564 689.232C631.36 687.408 632.267 685.635 633.281 683.923V683.923C635.133 680.913 637.164 678.017 639.362 675.25C641.241 672.76 643.417 670.509 645.842 668.546C647.174 667.49 648.62 666.587 650.153 665.854C651.898 665.056 653.393 664.608 653.717 665.181C654.041 665.754 653.468 666.377 652.92 667.075V667.1Z" fill="#FFF8EC"/>
<path d="M639.637 675.324C637.717 678.265 635.848 681.231 634.004 684.222L631.512 688.434L630.565 689.954C627.555 694.479 624.913 699.238 622.664 704.185C621.578 706.834 620.744 709.58 620.172 712.385C620.172 712.684 620.172 712.958 619.997 713.257V713.731C619.997 713.731 619.997 713.905 619.997 714.005C619.549 716.497 619.225 718.989 618.901 721.282C618.477 724.622 618.278 727.962 618.103 731.251C618.103 731.251 618.103 731.451 618.103 731.551C618.116 731.7 618.116 731.85 618.103 731.999V732.223C618.091 732.364 618.091 732.506 618.103 732.647C618.103 733.744 617.979 734.815 617.929 735.887L616.907 735.738C616.734 732.414 616.809 729.081 617.131 725.768C617.119 725.702 617.119 725.635 617.131 725.569V724.597C617.131 724.198 617.131 723.8 617.256 723.401C617.256 722.454 617.48 721.507 617.605 720.56C618.149 715.019 619.353 709.564 621.194 704.31C621.194 704.16 621.318 704.036 621.368 703.886V703.712C621.394 703.598 621.436 703.489 621.493 703.388L621.692 702.914L622.066 702.067V701.793C624.321 697.475 626.861 693.312 629.667 689.331C630.166 688.583 630.639 687.836 631.138 687.113L631.985 685.867L633.256 684.023C635.275 681.131 637.344 678.265 639.337 675.349C639.637 675.05 639.637 675.2 639.637 675.324Z" fill="#22665D"/>
<path d="M725.022 733.37C724.001 737.109 722.705 740.847 721.384 744.386C720.636 746.455 719.863 748.499 719.141 750.567C718.073 752.755 717.527 755.161 717.546 757.595V757.595C717.571 757.702 717.571 757.813 717.546 757.919C717.506 757.95 717.458 757.97 717.409 757.977C717.359 757.985 717.308 757.98 717.261 757.962C717.214 757.945 717.172 757.916 717.139 757.878C717.106 757.84 717.083 757.794 717.072 757.745C717.084 757.696 717.084 757.645 717.072 757.595V757.595C716.816 756.921 716.64 756.218 716.549 755.502C716.079 753.597 715.721 751.666 715.477 749.72C714.937 745.745 714.895 741.718 715.352 737.732C715.778 734.165 716.675 730.67 718.019 727.339C719.005 724.183 720.712 721.299 723.004 718.915C725.147 717.27 726.244 720.56 726.543 722.205C726.887 725.994 726.367 729.812 725.022 733.37V733.37Z" fill="#22665D"/>
<path d="M745.285 747.078C741.8 751.485 737.349 755.032 732.275 757.446C729.633 758.841 726.942 760.112 724.275 761.433C721.829 762.485 719.498 763.788 717.321 765.321L717.047 765.521C716.483 766.002 715.965 766.536 715.502 767.116C715.454 767.133 715.401 767.133 715.353 767.116C715.361 767.182 715.361 767.249 715.353 767.315C715.353 767.315 715.353 767.315 715.353 767.315V767.066C715.328 767.039 715.314 767.003 715.314 766.966C715.314 766.929 715.328 766.894 715.353 766.866C715.353 766.866 715.353 766.692 715.353 766.617C716.948 760.935 721.857 755.676 725.945 751.664C729.914 747.55 734.928 744.595 740.45 743.115C741.871 742.816 745.086 741.844 746.282 743.115C747.478 744.386 745.983 746.106 745.285 747.078Z" fill="#22665D"/>
<path d="M741.347 746.654C740.325 745.258 736.363 747.726 735.341 748.299C732.352 749.993 729.517 751.944 726.867 754.131C722.447 757.58 718.595 761.701 715.452 766.343V766.343C715.409 766.399 715.359 766.449 715.303 766.493C715.289 766.575 715.289 766.66 715.303 766.742V766.742C715.278 766.769 715.265 766.805 715.265 766.842C715.265 766.878 715.278 766.914 715.303 766.941L715.502 766.767L717.122 765.371L717.396 765.172C721.374 762.21 725.536 759.505 729.858 757.072C732.835 755.333 735.639 753.313 738.232 751.041C738.805 750.592 742.219 747.701 741.347 746.654ZM739.852 749.146C736.113 753.682 730.381 756.623 725.446 759.514C722.045 761.441 718.839 763.694 715.876 766.244C718.877 762.135 722.414 758.447 726.393 755.277C728.583 753.393 730.88 751.637 733.272 750.019C734.565 749.129 735.923 748.338 737.335 747.651C738.173 747.228 739.06 746.91 739.976 746.704C741.821 746.33 740.5 748.249 739.852 749.146Z" fill="#FFF8EC"/>
<path d="M712.934 778.829C712.891 778.848 712.844 778.858 712.797 778.858C712.75 778.858 712.703 778.848 712.66 778.829C712.66 778.829 712.66 778.829 712.66 778.829V778.954C712.66 778.954 712.66 778.954 712.536 778.954C708.261 773.431 705.172 767.084 703.464 760.312C702.842 757.49 702.69 754.585 703.015 751.713C703.264 749.769 703.738 745.832 705.507 744.635C709.296 742.293 710.492 754.854 710.741 756.748C711.09 760.212 711.14 763.701 711.414 767.141C711.688 770.58 712.286 774.618 712.86 778.456C712.918 778.496 712.959 778.558 712.973 778.627C712.987 778.697 712.973 778.77 712.934 778.829V778.829Z" fill="#22665D"/>
<path d="M729.733 769.433C728.834 771.681 727.456 773.705 725.695 775.365C722.356 778.829 718.218 781.496 714.729 784.686C714.181 785.16 713.658 785.658 713.134 786.157L712.636 786.904C712.636 786.904 712.636 786.58 712.91 786.082C714.478 781.334 716.559 776.771 719.116 772.474C720.675 770.153 722.517 768.035 724.599 766.168C725.596 765.321 727.938 763.527 729.409 764.2C730.879 764.873 730.157 768.237 729.733 769.433Z" fill="#22665D"/>
<path d="M727.49 767.49C725.994 766.244 720.686 773.147 720.013 774.02C717.388 777.307 715.209 780.928 713.533 784.786C713.334 785.21 713.134 785.634 712.96 786.082C712.785 786.531 712.686 786.88 712.686 786.905C712.686 786.93 713.134 786.207 713.209 786.157L713.458 785.883L714.754 784.687C716.997 782.194 719.265 779.702 721.458 777.21C723.051 775.412 724.493 773.486 725.77 771.453C726.019 771.079 728.138 768.038 727.49 767.49ZM726.692 769.534C723.402 775.739 717.919 780.201 713.433 785.459L713.209 785.709C713.294 785.556 713.369 785.397 713.433 785.235C714.902 782.087 716.663 779.083 718.692 776.263C719.932 774.518 721.28 772.853 722.729 771.278C723.502 770.391 724.335 769.558 725.222 768.786C725.621 768.487 726.717 767.639 727.016 767.864C727.315 768.088 726.867 769.085 726.692 769.534Z" fill="#FFF8EC"/>
<path d="M754.108 717.893C747.603 728.311 734.169 731.626 727.016 741.545C726.792 741.844 726.593 742.168 726.393 742.467C726.373 742.498 726.345 742.523 726.313 742.541C726.28 742.558 726.243 742.568 726.206 742.568C726.169 742.568 726.133 742.558 726.1 742.541C726.068 742.523 726.04 742.498 726.02 742.467C726.02 742.467 726.02 742.467 726.02 742.293L726.169 742.069C728.269 735.374 731.553 729.111 735.864 723.576C739.246 718.641 744.042 714.844 749.622 712.684C751.017 712.211 753.784 711.164 755.08 712.485C756.376 713.806 754.905 716.597 754.108 717.893Z" fill="#22665D"/>
<path d="M749.671 717.719C749.123 717.17 748.101 717.594 747.528 717.719C746.101 718.212 744.737 718.873 743.466 719.687C740.88 721.368 738.562 723.426 736.587 725.794C733.059 729.731 730.037 734.093 727.59 738.778C727.041 739.85 726.568 740.922 726.119 742.043L725.97 742.442C725.99 742.473 726.018 742.498 726.051 742.516C726.083 742.533 726.12 742.542 726.157 742.542C726.194 742.542 726.23 742.533 726.263 742.516C726.295 742.498 726.323 742.473 726.344 742.442L726.867 741.67C728.141 739.584 729.619 737.631 731.278 735.838C733.96 733.17 736.807 730.672 739.802 728.361C741.073 727.214 751.565 719.588 749.671 717.719ZM748.5 720.211C746.465 722.49 744.192 724.545 741.721 726.342C739.378 728.286 737.011 730.205 734.693 732.199C732.891 733.777 731.224 735.503 729.708 737.358C728.402 738.909 727.243 740.578 726.244 742.342C727.044 740.521 727.951 738.749 728.96 737.034V737.034C730.807 734.02 732.838 731.124 735.042 728.361V728.361C736.919 725.877 739.086 723.627 741.497 721.656C742.829 720.601 744.275 719.698 745.808 718.965C747.553 718.167 749.048 717.719 749.372 718.292C749.696 718.865 749.073 719.488 748.5 720.186V720.211Z" fill="#FFF8EC"/>
<path d="M735.241 728.435C733.322 731.376 731.452 734.342 729.608 737.333C728.711 738.728 727.863 740.149 726.991 741.545L726.069 743.065C723.043 747.584 720.392 752.344 718.144 757.296C717.069 759.949 716.235 762.693 715.651 765.496C715.651 765.795 715.651 766.069 715.477 766.368V766.841C715.477 766.841 715.477 767.016 715.477 767.116C715.028 769.608 714.704 772.1 714.405 774.393C713.957 777.733 713.757 781.072 713.583 784.362V784.661C713.583 784.811 713.583 784.96 713.583 785.11V785.334C713.596 785.475 713.596 785.617 713.583 785.758C713.583 786.83 713.583 787.901 713.408 788.998L712.386 788.848C712.213 785.524 712.288 782.192 712.611 778.879C712.611 778.879 712.611 778.755 712.611 778.68C712.611 778.605 712.611 778.032 712.611 777.708C712.628 777.307 712.669 776.907 712.735 776.512C712.735 775.565 712.935 774.617 713.059 773.67C713.611 768.131 714.816 762.677 716.648 757.421C716.648 757.271 716.773 757.122 716.823 756.997V756.798C716.813 756.698 716.813 756.598 716.823 756.498L717.022 756.025C717.147 755.726 717.271 755.452 717.421 755.153V754.903C719.668 750.509 722.207 746.271 725.022 742.218L726.518 739.999L727.34 738.753L728.611 736.909C730.63 733.993 732.699 731.152 734.692 728.236C735.091 728.161 735.315 728.311 735.241 728.435Z" fill="#22665D"/>
<path d="M752.512 817.535H316.71C316.71 817.535 315.09 775.166 330.492 759.764C345.895 744.361 360.749 740.623 365.733 737.333C377.483 728.279 388.507 718.321 398.706 707.55C409.947 695.562 426.122 677.643 434.496 675.948C442.87 674.253 481.126 667.599 489.027 670.266C496.928 672.932 539.695 703.936 544.281 705.282C548.867 706.628 631.387 739.925 638.863 741.221C646.34 742.517 689.158 752.586 707.975 761.782C733.77 774.418 752.512 817.535 752.512 817.535Z" fill="#4E4E53"/>
<path d="M624.16 736.161C605.019 737.034 576.681 753.981 571.074 756.573C562.824 760.436 513.203 746.604 493.638 744.934C474.074 743.264 467.843 718.965 469.039 715.027C470.236 711.089 447.656 704.111 450.472 694.74C452.117 689.257 503.034 678.34 503.034 678.34C518.636 688.309 541.042 704.285 544.282 705.232C547.522 706.179 598.19 726.541 624.16 736.161Z" fill="#C6C0B4"/>
<path d="M417.822 737.358C418.196 730.878 439.655 719.737 445.238 720.759C450.82 721.781 461.786 731.052 463.332 734.666C464.877 738.28 472.08 755.751 465.201 755.875C458.322 756 445.263 745.906 438.06 745.632C430.857 745.358 417.374 742.666 417.822 737.358Z" fill="#4E4E53"/>
<path d="M579.173 762.306C577.828 758.268 597.741 750.442 602.925 751.165C608.109 751.888 613.094 760.411 608.533 762.654C603.972 764.898 597.243 761.732 593.728 762.654C590.214 763.577 580.195 765.371 579.173 762.306Z" fill="#FFF8EC"/>
<path d="M316.262 826.831H223.673C213.704 826.831 235.063 802.157 243.786 798.568C252.509 794.979 275.338 797.023 280.946 801.061C286.554 805.098 310.33 817.659 313.346 819.753C314.476 820.513 315.356 821.591 315.875 822.851C316.394 824.11 316.528 825.495 316.262 826.831V826.831Z" fill="#4E4E53"/>
<path d="M650.453 828.899H838.87C838.87 828.899 830.048 818.93 820.303 816.887C810.558 814.843 788.501 808.413 784.513 804.874C780.526 801.335 746.93 788.25 734.119 788.599C721.309 788.948 700.1 800.637 696.984 803.553C693.869 806.469 683.077 816.986 679.538 817.859C675.999 818.731 659.176 820.775 650.453 828.899Z" fill="#4E4E53"/>
<path opacity="0.4" d="M651 828H734.481C734.481 828 764.223 820.978 754.5 819C744.777 817.023 752.479 804.924 748.5 801.5C744.521 798.076 739.5 794 735 787C722.218 787.338 703.608 794.179 700.5 797C697.392 799.821 684.531 816.656 681 817.5C677.469 818.344 659.704 820.139 651 828Z" fill="#1B1B22"/>
<path d="M801.835 812.326C798.245 812.925 794.607 813.184 790.969 813.098C789.448 812.949 774.669 807.167 769.236 806.568C763.803 805.97 734.344 804.973 732.2 802.381C730.58 800.437 741.821 794.306 749.223 791.116C763.877 795.004 781.623 802.356 784.514 804.874C786.557 806.693 793.386 809.235 800.888 811.603L801.835 812.326Z" fill="#C6C0B4"/>
<path d="M752.512 811.628C752.512 810.332 762.281 809.36 764.524 809.634C766.768 809.909 776.487 813.273 774.494 813.921C771.395 814.719 768.194 815.046 764.998 814.893C761.908 814.694 752.512 813.099 752.512 811.628Z" fill="#FFF8EC"/>
<path d="M226.339 710.566C269.381 740.997 401.223 806.743 459.842 797.796C499.345 791.715 597.965 699.525 616.283 668.421C623.76 655.685 531.695 577.752 518.511 586.425C504.155 595.871 443.019 683.2 431.679 686.49C420.339 689.78 310.978 671.337 250.066 668.297C213.579 666.377 206.625 696.634 226.339 710.566Z" fill="#FFC2B1"/>
<path d="M594.501 694.64C615.112 676.994 669.568 600.581 676.921 583.135C684.273 565.689 701.843 513.974 689.033 506.97C676.223 499.967 669.917 514.721 669.917 514.721C669.917 514.721 674.603 489.599 660.347 485.836C648.982 482.845 638.963 503.107 638.963 503.107C638.963 503.107 642.652 475.293 628.047 473.374C614.738 471.63 609.454 496.204 609.454 496.204C609.454 496.204 610.177 472.627 596.993 473.424C581.167 474.371 579.896 515.17 570.325 533.812C568.157 538.049 488.479 619.447 488.479 619.447L594.501 694.64Z" fill="#FFC2B1"/>
<path d="M608.532 495.332C604.47 525.812 601.903 538.299 585.279 562.623C584.955 563.097 585.603 563.695 585.977 563.222C604.42 540.791 608.557 526.161 610.003 495.182C610.078 493.811 608.732 493.911 608.532 495.332Z" fill="#1B1B22"/>
<path d="M638.689 503.182C634.901 534.261 628.421 547.794 612.894 574.686C612.669 575.085 613.292 575.483 613.542 575.11C630.988 550.012 640.01 534.61 639.711 503.057C639.636 501.637 638.863 501.761 638.689 503.182Z" fill="#1B1B22"/>
<path d="M669.145 516.042C663.313 545.95 657.431 561.626 639.013 585.826C638.917 585.939 638.87 586.085 638.882 586.232C638.893 586.379 638.963 586.516 639.075 586.611C639.188 586.707 639.334 586.754 639.481 586.743C639.628 586.731 639.765 586.661 639.86 586.549C661.02 563.72 668.522 544.18 670.042 516.341C670.142 514.422 669.544 514.173 669.145 516.042Z" fill="#1B1B22"/>
<path d="M488.528 619.547C488.528 619.547 503.482 587.147 509.837 571.545C516.193 555.944 527.956 509.039 541.938 505.126C557.664 500.715 560.705 544.529 549.614 572.617C549.614 572.617 588.469 603.422 579.098 630.912C577.054 636.843 555.496 660.994 548.368 662.016L488.528 619.547Z" fill="#FFC2B1"/>
<path d="M549.514 575.783C565.041 587.223 580.269 607.634 578.848 626.85C578.853 626.954 578.894 627.053 578.965 627.131C579.035 627.208 579.13 627.258 579.233 627.273C579.336 627.287 579.442 627.266 579.531 627.211C579.62 627.157 579.687 627.073 579.721 626.975C584.032 606.588 566.661 582.811 552.156 573.415C549.365 571.621 545.477 572.817 549.514 575.783Z" fill="#1B1B22"/>
<path opacity="0.1" d="M633.48 475.842L581.765 625.03L564.867 673.655L538.972 748.423C509.065 773.62 478.085 794.954 459.767 797.771C401.148 806.818 269.331 741.021 226.265 710.541C206.526 696.609 213.504 666.377 249.991 668.172C310.903 671.212 420.239 689.655 431.604 686.365C438.807 684.247 466.222 648.134 488.927 619.697L488.528 619.398C488.528 619.398 503.482 586.998 509.812 571.371C516.143 555.744 527.906 508.889 541.913 504.977C553.901 501.612 558.512 526.211 555.122 550.561C563.721 541.513 569.752 534.909 570.35 533.787C579.92 515.12 581.192 474.321 596.993 473.374C610.127 472.577 609.454 496.179 609.454 496.179C609.454 496.179 614.763 471.58 628.071 473.324C630.093 473.576 631.985 474.456 633.48 475.842V475.842Z" fill="#1B1B22"/>
<path d="M398.108 806.294L429.361 683.35C429.361 683.35 307.239 663.86 247.224 664.558C196.83 665.156 185.839 701.07 241.916 733.021C294.977 763.277 398.108 806.294 398.108 806.294Z" fill="#FFF8EC"/>
<path d="M397.161 689.332C394.336 696.502 391.939 703.834 389.983 711.289C387.665 718.89 385.646 726.566 383.603 734.193C381.559 741.819 374.531 772.649 372.786 780.325C372.786 780.674 373.334 780.749 373.434 780.325C375.777 772.724 384.998 742.567 386.967 735.04C388.936 727.513 390.98 720.086 392.724 712.61C394.79 704.995 396.397 697.263 397.535 689.456C397.56 689.332 397.236 689.332 397.161 689.332Z" fill="#1C406E"/>
<path opacity="0.1" d="M407.304 770.107L398.108 806.295C398.108 806.295 295.002 763.278 241.916 733.021C192.643 704.933 195.135 673.805 230.651 666.303L407.304 770.107Z" fill="#1B1B22"/>
<path d="M368.35 1079.28L20.875 1078.68C21.7473 1071.52 94.248 749.221 178.288 674.926C207.149 649.43 262.378 668.371 269.306 674.029C336.524 728.959 373.409 1075.09 368.35 1079.28Z" fill="#F5C22A"/>
<path d="M368.15 1060.51H24.8623C27.0804 1050.96 30.1958 1038.08 34.0838 1022.75H364.561C366.256 1038 367.477 1050.89 368.15 1060.51ZM355.315 952.542H53.1249C49.3117 965.751 45.7975 978.412 42.5825 990.275H360.624C359.053 978.437 357.284 965.726 355.315 952.542ZM343.452 882.359H74.7081C70.5211 895.045 66.5334 907.681 62.7451 920.093H350.181C348.038 907.681 345.869 895.02 343.452 882.359ZM328.498 812.126H99.8802C95.0452 824.588 90.3348 837.049 85.8237 849.885H336.972C334.255 837.099 331.389 824.438 328.373 812.126H328.498ZM307.887 741.944H131.208C125.102 753.732 119.121 766.418 113.314 779.677H319.825C315.987 766.318 311.974 753.657 307.762 741.944H307.887ZM269.431 674.054C268.155 673.152 266.794 672.376 265.368 671.736H182.425C180.975 672.723 179.593 673.805 178.288 674.976C167.352 685.178 157.808 696.775 149.9 709.469H294.254C286.478 693.593 278.253 681.306 269.306 674.054H269.431Z" fill="#FFF8EC"/>
<path d="M275.911 665.555L257.867 715.6L188.98 658.003L176.519 682.129C176.519 682.129 244.085 771.104 244.085 766.867L260.683 724.747L292.186 750.318L283.687 680.035L275.911 665.555Z" fill="#F5C22A"/>
<path d="M290.017 715.276C288.198 703.737 286.727 692.023 284.359 680.583C284.359 680.16 283.587 680.035 283.512 680.583C282.067 692.023 289.219 736.186 290.092 746.853L289.967 746.729C288.646 745.632 260.882 724.298 260.658 724.747C256.87 731.551 244.657 762.131 243.885 764.972C233.193 750.841 188.207 695.363 175.87 682.178C175.521 681.805 174.898 682.178 175.172 682.652C184.842 697.606 243.087 771.029 243.81 770.754C244.333 771.078 259.536 733.37 261.131 726.267C265.917 731.002 294.204 755.277 294.129 753.533C293.445 740.716 292.073 727.945 290.017 715.276V715.276Z" fill="#1C406E"/>
<path d="M261.68 725.968C241.742 731.302 206.451 701.668 192.12 677.244C191.148 675.574 193.217 657.555 194.612 635.523C195.46 622.164 196.108 607.261 195.709 593.628C195.709 590.836 281.867 611.871 281.867 611.871C281.867 611.871 274.391 640.707 275.138 664.483C275.224 666.363 275.474 668.231 275.886 670.066C275.956 670.37 276.006 670.678 276.036 670.988C278.254 681.581 280.92 720.784 261.68 725.968Z" fill="#FFC2B1"/>
<path d="M200.993 593.827C205.654 616.756 221.629 672.06 267.313 671.736C270.236 671.74 273.154 671.499 276.036 671.013C276.081 670.699 276.081 670.38 276.036 670.066C275.618 668.24 275.36 666.38 275.263 664.509C274.416 640.707 282.017 611.871 282.017 611.871C282.017 611.871 219.735 596.668 200.993 593.827Z" fill="#1B1B22"/>
<path d="M167.845 504.628C163.633 536.055 193.715 619.946 218.189 635.722C253.655 658.576 304.647 652.919 322.267 611.896C339.364 572.144 298.267 463.505 271.574 449.897C232.296 429.884 174.051 458.171 167.845 504.628Z" fill="#FFC2B1"/>
<path d="M188.532 593.727C205.579 588.543 212.184 567.134 205.978 533.663C199.772 500.192 201.965 486.633 216.62 477.985C231.275 469.337 252.509 479.655 260.808 477.238C269.107 474.82 263.45 461.561 270.329 459.791C273.718 458.894 285.856 466.496 299.713 487.73C299.713 487.73 283.887 424.924 216.969 446.084C154.662 465.773 162.138 518.136 165.977 533.314C172.108 558.137 188.532 593.727 188.532 593.727Z" fill="#1B1B22"/>
<path d="M143.919 477.487C142.523 476.864 167.297 434.096 178.113 425.149C188.93 416.201 244.358 411.715 246.9 415.179C249.442 418.644 147.184 479.032 143.919 477.487Z" fill="#FFF8EC"/>
<path opacity="0.1" d="M246.876 415.179C249.368 418.594 147.185 479.032 143.92 477.487C143.222 477.188 149.203 466.097 156.68 454.059C156.68 454.059 156.68 454.059 156.68 453.91C166.001 444.14 177.416 433.323 179.958 430.931C182.5 428.538 195.211 422.307 206.9 416.7C225.343 413.908 245.381 413.161 246.876 415.179Z" fill="#1B1B22"/>
<path d="M169.042 548.841C167.222 549.464 141.228 516.74 136.841 512.304C132.455 507.868 122.386 506.298 121.563 502.634C120.741 498.97 163.683 448.95 183.223 434.47C202.762 419.99 278.154 402.519 279.425 405.036C280.696 407.553 278.603 414.158 279.425 419.84C280.248 425.522 292.883 466.546 290.715 466.894C268.584 470.259 232.495 483.668 217.841 495.282C205.977 504.902 175.197 546.772 169.042 548.841Z" fill="#FFF8EC"/>
<path d="M138.685 514.373L135.121 510.211C136.866 508.242 177.914 462.01 193.316 450.396C203.46 442.719 265.717 419.666 278.876 417.173L280.123 422.631C267.661 425.124 205.802 447.903 196.257 455.031C181.054 466.471 139.034 513.899 138.685 514.373Z" fill="#F5C22A"/>
<path d="M203.734 568.331C203.734 568.331 214.177 587.621 204.058 602.101C193.939 616.582 197.304 635.972 204.282 642.202C204.282 642.202 191.821 677.294 224.221 683.599C224.221 683.599 222.002 719.314 261.356 722.928C261.356 722.928 273.194 734.965 292.958 725.42C292.958 725.42 325.158 733.719 339.364 708.348C339.364 708.348 373.459 711.538 374.83 670.689C374.83 670.689 396.288 653.467 380.811 630.812C380.811 630.812 396.064 613.366 375.951 598.911C375.951 598.911 384.101 570.973 349.832 563.87C350.01 560.555 348.88 557.304 346.685 554.814C344.489 552.325 341.404 550.798 338.093 550.561C338.093 550.561 320.872 543.084 317.283 533.115C317.283 533.115 323.638 554.1 312.473 560.38C302.503 566.013 289.843 564.368 289.843 564.368C289.843 564.368 276.16 581.964 244.433 581.341C217.018 580.792 204.706 551.732 204.706 551.732L203.734 568.331Z" fill="#1B1B22"/>
<path d="M207.049 572.194C207.049 572.194 182.375 547.944 171.035 557.24C159.695 566.536 181.827 604.219 197.678 607.086C199.69 607.581 201.78 607.664 203.825 607.331C205.87 606.998 207.826 606.255 209.576 605.147C211.327 604.039 212.835 602.589 214.011 600.883C215.187 599.178 216.007 597.252 216.42 595.222L207.049 572.194Z" fill="#FFC2B1"/>
<path d="M177.64 567.758C177.39 567.758 177.415 568.132 177.64 568.181C188.83 570.449 196.107 579.098 201.79 588.394C197.977 585.104 193.366 583.783 188.905 588.394C188.656 588.643 188.905 589.017 189.279 588.892C191.005 587.977 192.972 587.615 194.912 587.856C196.851 588.096 198.67 588.928 200.12 590.238C202.514 592.497 204.661 595.003 206.525 597.715C207.198 598.562 208.793 597.715 208.22 596.743C208.188 596.663 208.146 596.588 208.095 596.519C205.977 583.11 192.145 566.462 177.64 567.758Z" fill="#1B1B22"/>
<path d="M295.974 531.769C295.974 531.544 296.497 531.893 296.572 532.118C298.391 537.85 301.556 544.105 307.214 544.18C307.388 544.18 307.463 544.479 307.214 544.504C300.684 545.825 296.771 537.476 295.974 531.769Z" fill="#1B1B22"/>
<path d="M298.94 524.093C307.813 520.18 314.941 538.199 306.741 541.813C298.541 545.427 291.513 527.333 298.94 524.093Z" fill="#1B1B22"/>
<path d="M248.346 539.445C251.013 538.946 253.33 538.024 255.997 537.277C258.831 536.899 261.461 535.593 263.474 533.563C263.98 532.812 264.22 531.914 264.157 531.011C264.093 530.108 263.73 529.252 263.125 528.578C260.409 525.837 256.545 526.086 252.982 526.884C249.353 527.668 246.146 529.773 243.984 532.79C243.543 533.501 243.314 534.322 243.325 535.158C243.335 535.994 243.584 536.81 244.042 537.509C244.5 538.208 245.149 538.762 245.911 539.105C246.674 539.448 247.519 539.566 248.346 539.445V539.445Z" fill="#1B1B22"/>
<path d="M301.856 509.363C299.203 509.43 296.549 509.346 293.905 509.114C290.84 508.989 288.397 509.114 285.83 507.319C285.146 506.707 284.688 505.882 284.53 504.978C284.372 504.074 284.522 503.143 284.958 502.335C286.952 498.995 290.715 498.222 294.404 498.222C298.107 498.105 301.721 499.366 304.547 501.761C305.178 502.344 305.625 503.098 305.831 503.931C306.037 504.765 305.995 505.64 305.708 506.45C305.421 507.259 304.904 507.966 304.219 508.484C303.534 509.002 302.712 509.308 301.856 509.363Z" fill="#1B1B22"/>
<path d="M274.64 597.914C276.367 599.133 278.464 599.715 280.572 599.559C282.664 598.778 284.566 597.564 286.155 595.995C286.191 595.97 286.234 595.956 286.279 595.955C286.323 595.954 286.367 595.967 286.404 595.991C286.442 596.015 286.471 596.049 286.489 596.09C286.507 596.131 286.512 596.176 286.504 596.22C286.086 597.616 285.298 598.872 284.223 599.855C283.147 600.839 281.825 601.512 280.398 601.802C279.139 601.904 277.879 601.632 276.775 601.021C275.671 600.409 274.772 599.484 274.192 598.363C273.968 598.064 274.366 597.79 274.64 597.914Z" fill="#FFF8EC"/>
<path d="M248.695 548.168C249.997 547.123 251.451 546.283 253.007 545.676C254.608 545.085 256.288 544.732 257.992 544.629C259.834 544.567 261.671 544.863 263.4 545.501C265.248 546.215 266.91 547.34 268.26 548.791L270.752 551.433L267.387 551.981C265.007 552.366 262.675 553.01 260.434 553.901C258.088 554.797 256.03 556.313 254.477 558.287C254.745 556.896 255.286 555.572 256.069 554.391C256.852 553.21 257.861 552.196 259.038 551.408C261.315 549.798 263.919 548.709 266.665 548.218L265.792 551.408C263.699 549.384 260.988 548.12 258.091 547.819C254.957 547.53 251.799 547.648 248.695 548.168V548.168Z" fill="#1B1B22"/>
<path d="M262.278 559.483C264.55 558.161 266.63 556.534 268.459 554.648C268.858 554.149 270.353 552.156 270.104 551.657C269.43 550.405 268.592 549.248 267.612 548.218C268.853 549.04 269.921 550.098 270.752 551.333C270.828 552.102 270.733 552.878 270.474 553.606C270.216 554.334 269.8 554.996 269.257 555.545C267.347 557.488 264.929 558.853 262.278 559.483V559.483Z" fill="#1B1B22"/>
<path d="M276.435 589.64C282.566 584.182 292.111 581.714 298.217 580.294C298.84 579.97 298.965 578.474 298.84 577.801L294.08 565.963C295.949 566.187 305.296 566.86 304.348 564.642C296.398 546.448 287.575 526.186 275.837 509.812C275.802 509.748 275.756 509.692 275.7 509.646C275.643 509.6 275.579 509.566 275.509 509.545C275.44 509.524 275.367 509.517 275.295 509.524C275.223 509.532 275.153 509.553 275.089 509.587C275.025 509.622 274.969 509.668 274.923 509.725C274.877 509.781 274.843 509.845 274.822 509.915C274.801 509.984 274.794 510.057 274.801 510.129C274.809 510.201 274.83 510.271 274.865 510.335C281.818 528.13 291.812 544.604 299.065 562.374C295.731 562.096 292.375 562.289 289.096 562.947C288.547 563.346 294.753 575.185 295.252 577.203C295.252 577.203 282.591 577.951 275.438 587.297C273.594 589.64 273.494 592.132 276.435 589.64Z" fill="#1B1B22"/>
<path d="M276.435 589.64C282.566 584.182 292.111 581.714 298.217 580.294C298.84 579.97 298.965 578.474 298.84 577.801L294.554 567.134C293.208 565.215 290.093 566.187 290.79 567.458C291.488 568.73 294.753 575.11 295.252 577.129C295.252 577.129 282.591 577.876 275.438 587.222C273.594 589.64 273.494 592.132 276.435 589.64Z" fill="#FFF8EC"/>
<path d="M492.018 558.86L298.74 560.405L296.148 516.566L488.254 495.332L492.018 558.86Z" fill="#4E4E53"/>
<path d="M601.005 570.275L407.429 566.312L403.392 497.899L595.148 471.156L601.005 570.275Z" fill="#1C406E"/>
<path d="M694.142 587.92L546.523 574.038L540.592 473.823L685.543 442.669L694.142 587.92Z" fill="#4E4E53"/>
<path d="M699.775 514.696C701.943 551.333 699.252 581.29 693.769 581.614C688.286 581.938 682.055 552.505 679.886 515.868C677.718 479.231 680.435 449.299 685.918 448.975C691.401 448.651 697.607 478.085 699.775 514.696Z" fill="#F5C22A"/>
<path d="M179.982 750.667C242.489 816.688 408.276 925.127 444.987 910.298C512.703 882.758 538.872 688.983 547.595 651.349C551.309 635.299 413.011 624.258 408.65 641.38C404.887 656.334 398.456 758.119 385.796 761.783C380.612 763.303 304.821 732.324 218.812 712.485C152.816 697.232 161.49 731.127 179.982 750.667Z" fill="#FFC2B1"/>
<path d="M404.489 672.758C404.489 672.758 407.928 656.907 404.688 617.504C402.196 586.699 417.648 512.553 494.685 472.477C524.218 457.125 547.87 471.131 520.031 492.416C500.442 507.369 485.563 516.242 480.528 522.946C480.528 522.946 518.386 523.594 530.773 541.688C541.653 557.544 551.381 574.161 559.883 591.409C557.083 593.676 554.145 595.765 551.085 597.665C555.339 605.248 557.362 613.878 556.921 622.561C556.48 631.244 553.593 639.626 548.593 646.738L542.013 679.911L404.489 672.758Z" fill="#FFC2B1"/>
<path d="M410.844 590.412C420.14 577.178 440.253 549.364 464.702 532.317C491.818 513.45 549.116 484.39 562.824 504.553C572.793 519.332 551.982 532.342 551.982 532.342C551.982 532.342 578.201 525.314 584.382 540.666C589.99 554.623 573.241 563.72 573.241 563.72C573.241 563.72 589.865 562.2 592.681 576.705C596.096 594.151 560.655 594.5 548.842 615.136C546.175 619.821 410.844 590.412 410.844 590.412Z" fill="#FFC2B1"/>
<path d="M479.855 564.318C490.646 553.277 521.576 534.411 551.383 532.068C552.056 532.068 552.455 532.516 551.857 532.691C526.734 540.408 502.646 551.163 480.129 564.717C479.88 564.717 479.755 564.443 479.855 564.318Z" fill="#1B1B22"/>
<path d="M499.718 591.135C509.986 582.562 542.735 564.617 573.016 563.222C573.689 563.222 574.063 563.695 573.465 563.845C547.968 570.216 523.277 579.463 499.868 591.409C499.718 591.484 499.569 591.235 499.718 591.135Z" fill="#1B1B22"/>
<path opacity="0.1" d="M341.686 873L383.186 761.5L373.5 759C342.795 753.181 260.244 809.169 290.686 837.001C319.543 863.35 341.686 873 341.686 873Z" fill="#1B1B22"/>
<path opacity="0.1" d="M327.652 878.698L381.785 763.981C381.785 763.981 265.469 721.523 206.569 710.78C157.001 701.741 139.359 734.907 188.31 776.965C234.713 816.782 327.652 878.698 327.652 878.698Z" fill="#1B1B22"/>
<path d="M329.371 872.938L382.482 757.745C382.482 757.745 265.793 716.323 206.8 706.105C157.154 697.506 139.807 730.828 189.13 772.449C235.885 811.852 329.371 872.938 329.371 872.938Z" fill="#FFF8EC"/>
<path d="M349.733 757.794C345.653 764.336 341.958 771.11 338.667 778.082C335.004 785.135 331.639 792.313 328.225 799.466C324.81 806.618 312.299 835.604 309.184 842.831C309.184 843.155 309.657 843.355 309.807 843.056C313.495 836.002 328.05 808.014 331.365 800.986C334.68 793.958 338.044 786.954 341.135 779.851C344.557 772.745 347.545 765.437 350.082 757.969C350.107 757.819 349.833 757.645 349.733 757.794Z" fill="#1C406E"/>
<path d="M206.426 786.531C238.227 806.668 268.733 828.65 299.189 850.632C309.332 857.96 319.401 865.412 329.744 872.365L328.698 872.689C330.691 869.175 332.685 865.686 334.779 862.222C333.184 866.209 331.464 870.147 329.794 874.085L329.046 873.711C306.616 861.972 286.378 847.243 265.867 832.738C245.355 818.233 225.591 802.83 206.476 786.531H206.426Z" fill="#1B1B22"/>
<path d="M210.04 794.182C217.164 796.917 224.042 800.252 230.601 804.151C223.018 802.611 215.946 799.182 210.04 794.182V794.182Z" fill="#1B1B22"/>
<path d="M20.9248 1078.78C347.066 1077.23 712.884 1077.23 1039.03 1078.78C712.884 1080.3 347.066 1080.3 20.9248 1078.78Z" fill="#1B1B22"/>
<defs>
<filter id="filter0_d_206_8" x="379.866" y="11.6646" width="304.937" height="41.8525" filterUnits="userSpaceOnUse" color-interpolation-filters="sRGB">
<feFlood flood-opacity="0" result="BackgroundImageFix"/>
<feColorMatrix in="SourceAlpha" type="matrix" values="0 0 0 0 0 0 0 0 0 0 0 0 0 0 0 0 0 0 127 0" result="hardAlpha"/>
<feOffset dx="2" dy="2"/>
<feGaussianBlur stdDeviation="0.5"/>
<feComposite in2="hardAlpha" operator="out"/>
<feColorMatrix type="matrix" values="0 0 0 0 0 0 0 0 0 0 0 0 0 0 0 0 0 0 0.25 0"/>
<feBlend mode="normal" in2="BackgroundImageFix" result="effect1_dropShadow_206_8"/>
<feBlend mode="normal" in="SourceGraphic" in2="effect1_dropShadow_206_8" result="shape"/>
</filter>
<filter id="filter1_d_206_8" x="730.133" y="100.392" width="271.756" height="378.58" filterUnits="userSpaceOnUse" color-interpolation-filters="sRGB">
<feFlood flood-opacity="0" result="BackgroundImageFix"/>
<feColorMatrix in="SourceAlpha" type="matrix" values="0 0 0 0 0 0 0 0 0 0 0 0 0 0 0 0 0 0 127 0" result="hardAlpha"/>
<feOffset dx="4" dy="5"/>
<feComposite in2="hardAlpha" operator="out"/>
<feColorMatrix type="matrix" values="0 0 0 0 0.921569 0 0 0 0 0.921569 0 0 0 0 0.921569 0 0 0 1 0"/>
<feBlend mode="normal" in2="BackgroundImageFix" result="effect1_dropShadow_206_8"/>
<feBlend mode="normal" in="SourceGraphic" in2="effect1_dropShadow_206_8" result="shape"/>
</filter>
</defs>
</svg>
